{"title":"Choose.2010.DVDRip.XviD-OlFA","uid":6103757,"size":777688181,"categoryP":"video","categoryS":"movies","magnet":"?xt=urn:btih:dbcfc174cc0061f34992c7781dd2c94e7db26d53&amp;dn=Choose.2010.DVDRip.XviD-OlFA&amp;tr=udp%3A%2F%2Ftracker.openbittorrent.com%3A80&amp;tr=udp%3A%2F%2Fopen.demonii.com%3A1337&amp;tr=udp%3A%2F%2Ftracker.coppersurfer.tk%3A6969&amp;tr=udp%3A%2F%2Fexodus.desync.com%3A6969","seeders":0,"leechers":0,"uploader":"SAFCukO09","files":19,"time":1295082394,"description":"Choose 2010 Dvdrip Xvid-OlFA\n &lt;a href=&quot;\nhttp://www.imdb.com/title/tt1325723/&quot; rel=&quot;nofollow&quot; target=&quot;_NEW&quot;&gt;\nhttp://www.imdb.com/title/tt1325723/&lt;/a&gt;\n\nCrime | Drama | Horror\n\nUsers: 5.3/10 (18 votes)\n\nA journalism student tracks a killer with the help of her detective\nfather and a therapist.\n\nDirector: Marcus Graves\n\nStars: Katheryn Winnick, Nicholas Tucci, Kevin Pollak and Bruce Dern\n\nAspect: 2.35:1\n\nAudio: English, no subtitles.\n\nFormat : AVI\nFormat/Info : Audio Video Interleave\nFile size : 727 MiB\nDuration : 1h 22mn\nOverall bit rate : 1 227 Kbps\nWriting application : VirtualDubMod 1.5.4.1 (build 2178/release)\nWriting library : VirtualDubMod build 2178/release\n\nVideo\nID : 0\nFormat : MPEG-4 Visual\nFormat profile : Advanced Simple@L5\nFormat settings, BVOP : Yes\nFormat settings, QPel : No\nFormat settings, GMC : No warppoints\nFormat settings, Matrix : Default (H.263)\nMuxing mode : Packed bitstream\nCodec ID : XVID\nCodec ID/Hint : XviD\nDuration : 1h 22mn\nBit rate : 1 090 Kbps\nWidth : 640 pixels\nHeight : 268 pixels\nDisplay aspect ratio : 2.35:1\nFrame rate : 29.970 fps\nColor space : YUV\nChroma subsampling : 4:2:0\nBit depth : 8 bits\nScan type : Progressive\nBits/(Pixel*Frame) : 0.212\nStream size : 646 MiB (89%)\nWriting library : XviD 1.2.0.dev47 (UTC 2006-11-01)\n\nAudio\nID : 1\nFormat : MPEG Audio\nFormat version : Version 1\nFormat profile : Layer 2\nCodec ID : 50\nDuration : 1h 22mn\nBit rate mode : Constant\nBit rate : 128 Kbps\nChannel(s) : 2 channels\nSampling rate : 44.1 KHz\nStream size : 75.9 MiB (10%)\nAlignment : Split accross interleaves\nInterleave, duration : 72 ms (2.16 video frames)\nInterleave, preload duration : 504 ms\n\n\nSource: NTSC, had trouble with audio sync so kept framerate at source framerate ","torrent":{"xt":"urn:btih:dbcfc174cc0061f34992c7781dd2c94e7db26d53","amp;dn":"Choose.2010.DVDRip.XviD-OlFA","amp;tr":["udp%3A%2F%2Ftracker.openbittorrent.com%3A80","udp%3A%2F%2Fopen.demonii.com%3A1337","udp%3A%2F%2Ftracker.coppersurfer.tk%3A6969","udp%3A%2F%2Fexodus.desync.com%3A6969"],"infoHash":"dbcfc174cc0061f34992c7781dd2c94e7db26d53","infoHashBuffer":{"type":"Buffer","data":[219,207,193,116,204,0,97,243,73,146,199,120,29,210,201,78,125,178,109,83]},"announce":[],"urlList":[]}}